<svg version="1.1" id="Layer_1" xmlns="http://www.w3.org/2000/svg" x="0" y="0" viewBox="0 0 64 64" xml:space="preserve"><path id="uic-calculator__results-close" d="M47.6 42.9l-10.9-11 11-10.8c.5-.4.5-1.2 0-1.6l-3.1-3.1c-.3-.3-.6-.4-.9-.4-.3 0-.6.1-.8.3L32 27.1 21.1 16.3c-.2-.2-.5-.3-.8-.3-.3 0-.6.1-.8.3l-3.1 3.1c-.4.4-.4 1.2 0 1.6l11 10.8-10.9 11c-.2.2-.3.5-.3.8 0 .3.1.6.3.8l3.1 3.1c.2.2.5.3.8.3.3 0 .6-.1.8-.3L32 36.7l10.9 10.9c.2.2.5.3.8.3.3 0 .6-.1.8-.3l3.1-3.1c.2-.2.3-.5.3-.8.1-.3 0-.6-.3-.8z" fill="currentColor"/><path id="uic-calculator__results-close--hover" d="M32 0C14.3 0 0 14.3 0 32s14.3 32 32 32 32-14.3 32-32S49.7 0 32 0zm15.6 42.9c.2.2.3.5.3.8 0 .3-.1.6-.3.8l-3.1 3.1c-.2.3-.5.4-.8.4-.3 0-.6-.1-.8-.3L32 36.7l-10.9 11c-.2.2-.5.3-.8.3-.3 0-.6-.1-.8-.3l-3.1-3.1c-.3-.3-.4-.6-.4-.9s.1-.6.3-.8l10.9-11-11-10.8c-.5-.4-.5-1.2 0-1.6l3.1-3.1c.2-.2.5-.3.8-.3s.6.1.8.3L32 27.1l10.9-10.8c.2-.2.5-.3.8-.3.3 0 .6.1.8.3l3.1 3.1c.5.4.5 1.2 0 1.6l-11 10.8 11 11.1z" fill="currentColor"/></svg>