<?xml version="1.0" encoding="utf-8"?>
<!-- Generator: Adobe Illustrator 27.2.0, SVG Export Plug-In . SVG Version: 6.00 Build 0)  -->
<svg version="1.1" id="Layer_1" xmlns="http://www.w3.org/2000/svg" xmlns:xlink="http://www.w3.org/1999/xlink" x="0px" y="0px"
	 viewBox="0 0 300 300" style="enable-background:new 0 0 300 300;" xml:space="preserve">
<style type="text/css">
	.st0{clip-path:url(#SVGID_00000127034216150232776950000003699091985460454055_);fill:none;stroke:#FFFFFF;stroke-width:2.9229;}
	
		.st1{clip-path:url(#SVGID_00000127034216150232776950000003699091985460454055_);fill:none;stroke:#FFFFFF;stroke-width:6.3167;stroke-miterlimit:10;}
	.st2{fill:none;stroke:#FFFFFF;stroke-width:6.3167;stroke-miterlimit:10;}
	
		.st3{clip-path:url(#SVGID_00000158719997262442889110000000004822511949570432_);fill:none;stroke:#FFFFFF;stroke-width:6.3167;stroke-linecap:round;stroke-miterlimit:10;}
	
		.st4{clip-path:url(#SVGID_00000158719997262442889110000000004822511949570432_);fill:none;stroke:#FFFFFF;stroke-width:6.3167;stroke-miterlimit:10;}
	.st5{clip-path:url(#SVGID_00000158719997262442889110000000004822511949570432_);fill:none;stroke:#FFFFFF;stroke-width:2.9229;}
</style>
<g>
	<defs>
		<rect id="SVGID_1_" x="7.5" y="9" width="283" height="283"/>
	</defs>
	<clipPath id="SVGID_00000178903719323267136500000017085924050657683872_">
		<use xlink:href="#SVGID_1_"  style="overflow:visible;"/>
	</clipPath>
	
		<path style="clip-path:url(#SVGID_00000178903719323267136500000017085924050657683872_);fill:none;stroke:#FFFFFF;stroke-width:2.9229;" d="
		M149,290.5c77.3,0,140-62.7,140-140c0-77.3-62.7-140-140-140s-140,62.7-140,140C8.9,227.8,71.6,290.5,149,290.5z"/>
	
		<path style="clip-path:url(#SVGID_00000178903719323267136500000017085924050657683872_);fill:none;stroke:#FFFFFF;stroke-width:6.3167;stroke-miterlimit:10;" d="
		M220.8,172.5l-24.7,7.8L180.7,159c0,0,18,7.4,32.2-4.7L220.8,172.5z M212.9,154.2c-31.9,21.2-55.6-13.7-55.6-13.7
		c-11.3-15.2-19.3,0.5-19.3,0.5c-5.9,14.2-14.5,13-19.5,10.5c-2.5-1.2-3.7-4.2-2.9-6.9l3.8-12.9c1.7-5.7,5.8-10.3,11.2-12.7
		l14.4-6.3c5.1-2.2,9.9-1.7,16.2-0.4l37.5,8.8L212.9,154.2z"/>
</g>
<polyline class="st2" points="65.7,103.5 93.7,115.2 68.9,172.5 41.5,162 "/>
<polyline class="st2" points="226.5,109.5 198.5,121.2 223.3,178.5 250.7,168 "/>
<g>
	<defs>
		<rect id="SVGID_00000122713522248761401690000014972895695940412548_" x="7.5" y="9" width="283" height="283"/>
	</defs>
	<clipPath id="SVGID_00000109025643871249457030000003550556281359011474_">
		<use xlink:href="#SVGID_00000122713522248761401690000014972895695940412548_"  style="overflow:visible;"/>
	</clipPath>
	
		<path style="clip-path:url(#SVGID_00000109025643871249457030000003550556281359011474_);fill:none;stroke:#FFFFFF;stroke-width:6.3167;stroke-linecap:round;stroke-miterlimit:10;" d="
		M133,191.1l20.3,22.3c2.3,2.5,5.4,4.2,8.7,4.4c3.8,0.2,8.7-1.2,12.8-7.9 M144.8,179.1l24.6,25.4c6.6,6.9,18.4,4.4,21.3-4.7
		c0-0.1,0.1-0.3,0.1-0.4 M178.8,158.8l21.3,26.4c1.6,2,2.1,4.7,1.2,7.2c-2.2,6-10,7.7-14.5,3l-29.2-30.7"/>
	
		<path style="clip-path:url(#SVGID_00000109025643871249457030000003550556281359011474_);fill:none;stroke:#FFFFFF;stroke-width:6.3167;stroke-miterlimit:10;" d="
		M135.5,214.8l-2,2c-2.9,2.9-7.6,3-10.6,0.2c-3-2.8-3.1-7.5-0.3-10.5l1.4-1.5 M112.8,193.8l-3.6,3.8c-3,3.2-2.8,8.1,0.4,11.1
		c3.2,2.9,8.2,2.8,11.2-0.4l3.7-3.9 M112.8,193.8l-5.5,5.9c-2.9,3.2-7.9,3.4-11.1,0.6c-3.3-2.9-3.7-7.9-0.8-11.2l5.1-5.8
		 M89.3,174.4l-2.5,2.8c-2.4,2.7-2.1,6.9,0.7,9.2c3,2.4,7.3,2.1,9.9-0.8l2.4-2.7 M73.2,162.5c0,0,28.1,19.2,58.7,48.9l9.5,9
		c4.8,4.5,12.9,2.1,14-4.4c0-0.1,0-0.2,0-0.3 M134.3,117.5c-18.3-4.1-40.6-2.3-40.6-2.3"/>
	
		<path style="clip-path:url(#SVGID_00000109025643871249457030000003550556281359011474_);fill:none;stroke:#FFFFFF;stroke-width:2.9229;" d="
		M149,279.7c71.4,0,129.2-57.9,129.2-129.2c0-71.4-57.9-129.2-129.2-129.2S19.7,79.1,19.7,150.5C19.7,221.9,77.6,279.7,149,279.7z"
		/>
</g>
</svg>
