<?xml version="1.0" encoding="utf-8"?>
<svg version="1.1" id="Layer_2_00000029005446162671508700000014848971686239980455_" xmlns="http://www.w3.org/2000/svg" x="0px" y="0px" viewBox="0 0 630.2 146.4" style="enable-background:new 0 0 630.2 146.4">
  <style type="text/css">
		.uic-hero__text--belong-00,
		.uic-hero__text--belong-01,
		.uic-hero__text--belong-02,
		.uic-hero__text--belong-03,
		.uic-hero__text--belong-04,
		.uic-hero__text--belong-05
        {
			stroke: #000000;
			fill: #FFFFFF;
			stroke-width: 0.4%;
			stroke-opacity: 0.4;
			paint-order: stroke fill;
			filter: drop-shadow(0px 0px 3px rgba(0, 0, 0, 0.66)) drop-shadow(0px 0px 6px rgba(0, 0, 0, 0.15));
		}

		.uic-hero__text--belong-00 {
			fill: #D50032;
		}
	</style>
  	<g id="uic-hero__slider__text">
		<path class="uic-hero__text--belong-00" d="M 305.22 127.63 C 285.42 116.29 273.18 95.41 273.18 73.09 C 273.18 61.93 276.06 51.49 281.82 41.59 C 293.16 22.15 314.4 9.91 336.54 9.91 C 347.52 9.91 358.14 12.79 368.04 18.37 C 387.84 29.89 399.72 51.31 399.72 73.09 C 399.72 84.07 396.84 94.33 391.26 104.23 C 379.74 124.03 358.86 136.27 336.54 136.27 C 325.56 136.27 315.12 133.39 305.22 127.63 L 305.22 127.63 Z M 308.1 23.77 C 290.64 33.85 279.84 52.39 279.84 73.09 C 279.84 83.35 282.36 92.89 287.4 101.53 C 297.48 118.99 315.84 129.79 336.54 129.79 C 346.8 129.79 356.34 127.27 365.16 122.23 C 382.62 112.15 393.42 93.79 393.42 73.09 C 393.42 62.83 390.9 53.29 385.86 44.47 C 375.78 27.01 356.7 16.21 336.54 16.21 C 326.28 16.21 316.74 18.73 308.1 23.77 L 308.1 23.77 Z M 310.98 117.19 C 294.96 108.01 285.06 91.27 285.06 73.09 C 285.06 63.91 287.4 55.45 291.9 47.53 C 301.08 31.69 317.28 22.33 336.54 22.33 C 346.26 22.33 355.08 24.49 362.82 28.81 C 378.3 37.45 387.3 53.65 387.3 73.09 C 387.3 82.27 385.14 90.73 380.82 98.47 C 372 114.13 354.72 124.03 336.54 124.03 C 327.54 124.03 319.08 121.69 310.98 117.19 Z M 314.22 34.57 C 300.36 42.49 291.9 56.71 291.9 73.09 C 291.9 81.01 293.88 88.39 298.02 95.23 C 305.94 109.09 319.98 117.73 336.54 117.73 C 344.64 117.73 352.02 115.75 358.86 111.61 C 372.36 103.69 381 88.93 381 73.09 C 381 64.99 379.02 57.43 375.06 50.59 C 367.14 36.91 352.2 28.63 336.54 28.63 C 328.44 28.63 321.06 30.61 314.22 34.57 Z M 316.92 107.11 C 304.86 100.09 297.12 86.77 297.12 73.09 C 297.12 66.07 298.92 59.41 302.52 53.29 C 309.54 41.05 321.96 34.03 336.54 34.03 C 343.56 34.03 350.04 35.83 355.98 39.25 C 368.04 46.27 375.06 58.51 375.06 73.09 C 375.06 80.29 373.44 86.77 370.2 92.71 C 363.54 104.59 350.76 112.33 336.54 112.33 C 329.52 112.33 322.86 110.53 316.92 107.11 Z M 320.34 44.83 C 310.26 50.77 303.78 61.39 303.78 73.09 C 303.78 78.85 305.22 84.25 308.1 89.11 C 313.86 99.19 324.3 105.31 336.54 105.31 C 342.48 105.31 348.06 103.87 352.92 100.99 C 362.82 95.23 368.76 84.61 368.76 73.09 C 368.76 67.15 367.32 61.75 364.44 56.71 C 358.68 46.63 348.06 40.51 336.54 40.51 C 330.78 40.51 325.38 41.95 320.34 44.83 L 320.34 44.83 Z"/>
  		<path class="uic-hero__text--belong-01" d="M 87.67 74.03 C 92.53 80.33 94.87 88.07 94.87 97.43 C 94.87 121.91 79.03 136.31 52.93 136.31 L 0.01 136.31 L 0.01 11.21 L 6.49 11.21 L 6.49 129.83 L 52.93 129.83 C 75.79 129.83 88.39 118.49 88.39 97.43 C 88.39 88.79 87.31 83.21 85.15 80.51 L 81.73 76.55 L 79.39 74.21 L 81.37 72.23 L 83.17 69.35 C 86.23 63.77 87.67 57.65 87.67 50.63 C 87.67 29.21 75.25 17.87 52.93 17.87 L 18.55 17.87 L 18.55 59.09 L 54.55 59.09 C 60.49 59.09 63.37 56.21 63.37 50.63 C 63.37 44.33 59.77 40.91 54.55 40.91 L 30.97 40.91 L 30.97 53.51 L 24.49 53.51 L 24.49 34.61 L 54.55 34.61 C 58.15 34.61 62.11 35.87 64.45 38.03 C 68.05 41.45 69.85 45.59 69.85 50.63 C 69.85 60.17 64.09 65.57 54.55 65.57 L 12.25 65.57 L 12.25 11.39 L 53.83 11.39 C 79.21 11.39 93.97 25.61 93.97 50.63 C 93.97 59.81 91.81 67.73 87.67 74.03 L 87.67 74.03 Z M 57.25 124.6 L 12.25 124.6 L 12.25 82.84 L 54.55 82.84 C 64.09 82.84 70.39 88.6 70.39 97.96 C 70.39 100.84 69.85 103.36 68.77 105.34 C 66.25 110.56 61.57 113.08 54.55 113.08 L 24.49 113.08 L 24.49 94.72 L 30.97 94.72 L 30.97 106.6 L 54.55 106.6 C 60.85 106.6 63.91 103.72 63.91 97.96 C 63.91 92.2 60.85 89.5 54.55 89.5 L 18.55 89.5 L 18.55 117.94 L 57.25 117.94 C 60.85 117.94 64.09 117.04 67.15 115.24 C 73.45 111.46 76.51 105.88 76.51 98.68 C 76.51 85.54 68.77 77.26 56.71 77.26 L 12.43 77.26 L 12.43 70.78 L 56.71 70.78 C 68.23 70.78 75.79 61.96 75.79 49.54 C 75.79 42.34 72.01 35.86 66.25 32.26 C 63.19 30.46 60.31 29.56 57.25 29.56 L 24.67 29.56 L 24.67 23.08 L 57.25 23.08 C 67.15 23.08 74.89 27.58 79.21 35.86 C 81.37 40 82.45 44.68 82.45 49.54 C 82.45 60.88 77.59 69.52 69.49 74.02 L 74.17 77.44 C 80.11 82.66 82.99 89.68 82.99 98.68 C 82.99 105.88 80.29 112.18 75.07 117.4 C 69.49 122.26 63.55 124.6 57.25 124.6 L 57.25 124.6 Z"/>
  		<path class="uic-hero__text--belong-02" d="M 109.82 10.85 L 109.82 130.01 L 178.76 130.01 L 178.76 112.01 L 128 112.01 L 128 94.73 L 134.48 94.73 L 134.48 105.53 L 185.24 105.53 L 185.24 136.49 L 103.34 136.49 L 103.34 10.86 L 109.82 10.86 L 109.82 10.85 Z M 184.33 10.85 L 184.33 41.63 L 141.13 41.63 L 141.13 35.15 L 177.85 35.15 L 177.85 17.33 L 122.05 17.33 L 122.05 69.35 L 163.99 69.35 L 163.99 75.83 L 115.57 75.83 L 115.57 10.85 L 184.33 10.85 L 184.33 10.85 Z M 170.29 81.59 L 170.29 63.59 L 127.99 63.59 L 127.99 22.73 L 171.55 22.73 L 171.55 29.21 L 134.47 29.21 L 134.47 57.11 L 176.77 57.11 L 176.77 88.07 L 122.05 88.07 L 122.05 117.95 L 172.45 117.95 L 172.45 124.43 L 115.57 124.43 L 115.57 81.59 L 170.29 81.59 Z"/>
  		<path class="uic-hero__text--belong-03" d="M 220.15 10.31 L 220.15 124.6 L 213.49 124.6 L 213.49 16.78 L 208.09 16.78 L 208.09 130 L 267.31 130 L 267.31 112.72 L 237.97 112.72 L 237.97 106.24 L 273.79 106.24 L 273.79 136.48 L 201.61 136.48 L 201.61 10.31 L 220.15 10.31 L 220.15 10.31 Z M 232.57 10.31 L 232.57 117.95 L 261.55 117.95 L 261.55 124.61 L 226.09 124.61 L 226.09 10.32 L 232.57 10.32 L 232.57 10.31 Z"/>
 		<path class="uic-hero__text--belong-04" d="M 414.01 136.48 L 407.71 136.48 L 407.71 15.7 L 500.23 109.12 L 500.23 118.66 L 414.01 31.18 L 414.01 136.48 Z M 493.75 85.19 L 493.75 23.09 L 500.23 23.09 L 500.23 101.03 L 411.13 10.49 L 420.13 10.49 L 493.75 85.19 Z M 487.81 70.79 L 481.33 63.77 L 481.33 10.49 L 512.65 10.49 L 512.65 136.49 L 501.13 136.49 L 426.43 61.61 L 426.43 130.01 L 432.19 130.01 L 432.19 76.55 L 438.85 83.39 L 438.85 136.49 L 419.95 136.49 L 419.95 45.77 L 502.39 129.29 L 503.11 130.01 L 506.17 130.01 L 506.17 16.79 L 487.81 16.79 L 487.81 70.79 L 487.81 70.79 Z"/>
  		<path class="uic-hero__text--belong-05" d="M 554.05 127.84 C 534.61 116.5 522.37 95.08 522.37 73.66 C 522.37 62.5 525.25 51.88 531.01 41.98 C 542.53 22 562.33 10.66 585.19 10.66 C 600.85 10.66 615.97 16.6 627.49 27.22 C 627.85 27.4 628.39 27.76 628.93 28.3 L 630.19 29.74 L 625.69 34.42 L 623.17 31.9 C 612.91 22.36 599.41 17.14 585.19 17.14 C 575.11 17.14 565.75 19.66 557.11 24.7 C 539.65 34.78 528.85 53.5 528.85 73.66 C 528.85 83.74 531.37 93.1 536.41 101.74 C 546.49 119.2 565.03 130 585.19 130 C 597.43 130 606.79 126.58 622.09 116.68 L 622.09 75.28 L 582.67 75.28 L 582.67 68.8 L 628.39 68.8 L 628.39 120.1 L 627.13 121.18 C 611.11 132.16 599.59 136.48 585.19 136.48 C 574.03 136.48 563.59 133.6 554.05 127.84 L 554.05 127.84 Z M 559.99 117.41 C 544.15 108.23 534.43 91.67 534.43 73.67 C 534.43 64.49 536.77 55.85 541.27 47.93 C 550.45 32.27 566.65 22.91 585.19 22.91 C 595.45 22.91 605.35 26.15 614.89 32.45 L 619.57 36.05 L 621.91 38.39 L 608.95 52.43 L 603.19 47.93 C 597.97 44.15 591.85 42.17 585.19 42.17 C 579.79 42.17 574.57 43.61 569.71 46.31 C 559.81 52.07 553.87 62.15 553.87 73.67 C 553.87 79.07 555.31 84.29 558.19 89.15 C 563.77 99.05 573.85 104.99 585.19 104.99 C 589.69 104.99 593.83 104.09 597.61 102.11 L 597.61 99.23 L 582.67 99.23 L 582.67 80.87 L 616.33 80.87 L 616.33 112.91 L 612.19 116.15 C 604.09 121.73 595.81 124.25 585.19 124.25 C 576.19 124.25 567.73 121.91 559.99 117.41 L 559.99 117.41 Z M 563.05 35.33 C 549.37 43.25 540.91 57.83 540.91 73.67 C 540.91 81.59 542.89 88.97 546.85 95.63 C 554.77 109.31 569.35 117.77 585.19 117.77 C 594.01 117.77 601.93 115.43 608.59 110.93 L 609.85 109.85 L 609.85 87.35 L 589.15 87.35 L 589.15 92.75 L 604.09 92.75 L 604.09 106.25 L 602.29 107.15 C 596.35 110.03 590.77 111.47 585.19 111.47 C 578.71 111.47 572.41 109.67 566.47 106.25 C 554.41 99.23 547.39 87.53 547.39 73.67 C 547.39 66.83 549.01 60.53 552.43 54.59 C 559.09 43.07 571.33 35.87 585.19 35.87 C 592.93 35.87 600.31 38.21 606.97 42.71 L 608.23 43.61 L 612.55 38.93 L 611.11 37.85 C 603.37 32.27 594.73 29.39 585.19 29.39 C 577.27 29.39 569.89 31.37 563.05 35.33 L 563.05 35.33 Z"/>
  	</g>
</svg>