<?xml version="1.0" encoding="utf-8"?>
<!-- Generator: Adobe Illustrator 27.2.0, SVG Export Plug-In . SVG Version: 6.00 Build 0)  -->
<svg version="1.1" xmlns="http://www.w3.org/2000/svg" xmlns:xlink="http://www.w3.org/1999/xlink" viewBox="0 0 64 64">
	<defs>
		<radialGradient id="uic-video-hero__play-overlay--dark" cx="32" cy="32" r="30.6543"
			gradientUnits="userSpaceOnUse">
			<stop offset="0.1901" style="stop-color:#000000;stop-opacity:0.32" />
			<stop offset="0.5302" style="stop-color:#000000;stop-opacity:0.15" />
			<stop offset="0.7517" style="stop-color:#000000;stop-opacity:0.1" />
			<stop offset="0.90" style="stop-color:#000000;stop-opacity:0.17" />
			<stop offset="0.97" style="stop-color:#000000;stop-opacity:0.37" />
			<stop offset="1" style="stop-color:#000000;stop-opacity:0.53" />
		</radialGradient>
		<radialGradient id="uic-video-hero__play-overlay--light" cx="32" cy="32" r="30.6543"
			gradientUnits="userSpaceOnUse">
			<stop offset="0" style="stop-color:#FFFFFF;stop-opacity:0.25" />
			<stop offset="0.4413" style="stop-color:#FFFFFF;stop-opacity:0.33" />
			<stop offset="0.6274" style="stop-color:#FFFFFF;stop-opacity:0.40" />
			<stop offset="0.9859" style="stop-color:#FFFFFF;stop-opacity:0.5887" />
			<stop offset="1" style="stop-color:#FFFFFF;stop-opacity:0.6" />
		</radialGradient>
	</defs>
	<g id="uic-video-hero__play">
		<path style="fill:url(#uic-video-hero__play-overlay--dark);" d="M32,62.65C15.1,62.65,1.35,48.9,1.35,32S15.1,1.35,32,1.35S62.65,15.1,62.65,32
		S48.9,62.65,32,62.65z" />
		<path style="fill:#FFFFFF;" id="uic-video-hero__play-ring"  d="M32,2.69c16.16,0,29.31,13.15,29.31,29.31c0,16.16-13.15,29.31-29.31,29.31
		C15.84,61.31,2.69,48.16,2.69,32C2.69,15.84,15.84,2.69,32,2.69 M32,0C14.33,0,0,14.33,0,32c0,17.67,14.33,32,32,32
		s32-14.33,32-32C64,14.33,49.67,0,32,0L32,0Hz" />
		<path style="fill:url(#uic-video-hero__play-overlay--light);" d="M32,62.65C15.1,62.65,1.35,48.9,1.35,32
		S15.1,1.35,32,1.35S62.65,15.1,62.65,32S48.9,62.65,32,62.65z" />

		<polygon id="uic-video-hero__play-symbol" style="fill:#FFFFFF;" points="25.43,12 45.43,32 25.43,52 	" />
	</g>
</svg>